<svg width="41" height="41" viewBox="0 0 41 41" fill="none" xmlns="http://www.w3.org/2000/svg">
<path d="M15.3751 37.5834C16.3186 37.5834 17.0834 36.8185 17.0834 35.875C17.0834 34.9315 16.3186 34.1667 15.3751 34.1667C14.4316 34.1667 13.6667 34.9315 13.6667 35.875C13.6667 36.8185 14.4316 37.5834 15.3751 37.5834Z" stroke="black" stroke-width="3" stroke-linecap="round" stroke-linejoin="round"/>
<path d="M34.1666 37.5834C35.1101 37.5834 35.8749 36.8185 35.8749 35.875C35.8749 34.9315 35.1101 34.1667 34.1666 34.1667C33.2231 34.1667 32.4583 34.9315 32.4583 35.875C32.4583 36.8185 33.2231 37.5834 34.1666 37.5834Z" stroke="black" stroke-width="3" stroke-linecap="round" stroke-linejoin="round"/>
<path d="M1.70825 1.70831H8.54159L13.1199 24.5829C13.2761 25.3694 13.704 26.0759 14.3286 26.5787C14.9533 27.0816 15.7349 27.3487 16.5366 27.3333H33.1416C33.9433 27.3487 34.7249 27.0816 35.3495 26.5787C35.9742 26.0759 36.402 25.3694 36.5583 24.5829L39.2916 10.25H10.2499" stroke="black" stroke-width="3" stroke-linecap="round" stroke-linejoin="round"/>
</svg>
