<svg width="41" height="41" viewBox="0 0 41 41" fill="none" xmlns="http://www.w3.org/2000/svg">
<g clip-path="url(#clip0_11_1435)">
<path d="M21 2V39.5833" stroke="black" stroke-width="3" stroke-linecap="round" stroke-linejoin="round"/>
<path d="M29.0417 8.54163H16.2292C14.6434 8.54163 13.1226 9.17157 12.0013 10.2929C10.8799 11.4142 10.25 12.935 10.25 14.5208C10.25 16.1066 10.8799 17.6274 12.0013 18.7487C13.1226 19.87 14.6434 20.5 16.2292 20.5H24.7708C26.3566 20.5 27.8774 21.1299 28.9987 22.2512C30.1201 23.3725 30.75 24.8934 30.75 26.4791C30.75 28.0649 30.1201 29.5857 28.9987 30.707C27.8774 31.8283 26.3566 32.4583 24.7708 32.4583H10.25" stroke="black" stroke-width="3" stroke-linecap="round" stroke-linejoin="round"/>
</g>
<defs>
<clipPath id="clip0_11_1435">
<rect width="41" height="41" fill="white"/>
</clipPath>
</defs>
</svg>
