<svg width="128" height="63" viewBox="0 0 128 63" fill="none" xmlns="http://www.w3.org/2000/svg">
<path d="M51.5084 18.144C50.6764 18.144 49.9244 17.9573 49.2524 17.584C48.5804 17.2 48.0524 16.6667 47.6684 15.984C47.2844 15.2907 47.0924 14.4907 47.0924 13.584C47.0924 12.688 47.2897 11.8933 47.6844 11.2C48.079 10.5067 48.6177 9.97333 49.3004 9.6C49.983 9.22667 50.7457 9.04 51.5884 9.04C52.431 9.04 53.1937 9.22667 53.8764 9.6C54.559 9.97333 55.0977 10.5067 55.4924 11.2C55.887 11.8933 56.0844 12.688 56.0844 13.584C56.0844 14.48 55.8817 15.2747 55.4764 15.968C55.071 16.6613 54.5164 17.2 53.8124 17.584C53.119 17.9573 52.351 18.144 51.5084 18.144ZM51.5084 16.56C51.9777 16.56 52.415 16.448 52.8204 16.224C53.2364 16 53.5724 15.664 53.8284 15.216C54.0844 14.768 54.2124 14.224 54.2124 13.584C54.2124 12.944 54.0897 12.4053 53.8444 11.968C53.599 11.52 53.2737 11.184 52.8684 10.96C52.463 10.736 52.0257 10.624 51.5564 10.624C51.087 10.624 50.6497 10.736 50.2444 10.96C49.8497 11.184 49.535 11.52 49.3004 11.968C49.0657 12.4053 48.9484 12.944 48.9484 13.584C48.9484 14.5333 49.1884 15.2693 49.6684 15.792C50.159 16.304 50.7724 16.56 51.5084 16.56ZM65.8715 9.184V18H64.0475V16.96C63.7595 17.3227 63.3808 17.6107 62.9115 17.824C62.4528 18.0267 61.9622 18.128 61.4395 18.128C60.7462 18.128 60.1222 17.984 59.5675 17.696C59.0235 17.408 58.5915 16.9813 58.2715 16.416C57.9622 15.8507 57.8075 15.168 57.8075 14.368V9.184H59.6155V14.096C59.6155 14.8853 59.8128 15.4933 60.2075 15.92C60.6022 16.336 61.1408 16.544 61.8235 16.544C62.5062 16.544 63.0448 16.336 63.4395 15.92C63.8448 15.4933 64.0475 14.8853 64.0475 14.096V9.184H65.8715ZM70.4061 10.672V15.552C70.4061 15.8827 70.4808 16.1227 70.6301 16.272C70.7901 16.4107 71.0568 16.48 71.4301 16.48H72.5501V18H71.1101C70.2888 18 69.6595 17.808 69.2221 17.424C68.7848 17.04 68.5661 16.416 68.5661 15.552V10.672H67.5261V9.184H68.5661V6.992H70.4061V9.184H72.5501V10.672H70.4061ZM77.4313 18.144C76.7379 18.144 76.1139 18.0213 75.5593 17.776C75.0153 17.52 74.5833 17.1787 74.2633 16.752C73.9433 16.3147 73.7726 15.8293 73.7513 15.296H75.6393C75.6713 15.6693 75.8473 15.984 76.1673 16.24C76.4979 16.4853 76.9086 16.608 77.3993 16.608C77.9113 16.608 78.3059 16.512 78.5833 16.32C78.8713 16.1173 79.0153 15.8613 79.0153 15.552C79.0153 15.2213 78.8553 14.976 78.5353 14.816C78.2259 14.656 77.7299 14.48 77.0473 14.288C76.3859 14.1067 75.8473 13.9307 75.4313 13.76C75.0153 13.5893 74.6526 13.328 74.3433 12.976C74.0446 12.624 73.8953 12.16 73.8953 11.584C73.8953 11.1147 74.0339 10.688 74.3113 10.304C74.5886 9.90933 74.9833 9.6 75.4953 9.376C76.0179 9.152 76.6153 9.04 77.2873 9.04C78.2899 9.04 79.0953 9.296 79.7033 9.808C80.3219 10.3093 80.6526 10.9973 80.6953 11.872H78.8713C78.8393 11.4773 78.6793 11.1627 78.3913 10.928C78.1033 10.6933 77.7139 10.576 77.2233 10.576C76.7433 10.576 76.3753 10.6667 76.1193 10.848C75.8633 11.0293 75.7353 11.2693 75.7353 11.568C75.7353 11.8027 75.8206 12 75.9913 12.16C76.1619 12.32 76.3699 12.448 76.6153 12.544C76.8606 12.6293 77.2233 12.7413 77.7033 12.88C78.3433 13.0507 78.8659 13.2267 79.2713 13.408C79.6873 13.5787 80.0446 13.8347 80.3433 14.176C80.6419 14.5173 80.7966 14.9707 80.8073 15.536C80.8073 16.0373 80.6686 16.4853 80.3913 16.88C80.1139 17.2747 79.7193 17.584 79.2073 17.808C78.7059 18.032 78.1139 18.144 77.4313 18.144ZM83.7061 8.016C83.3755 8.016 83.0981 7.904 82.8741 7.68C82.6501 7.456 82.5381 7.17867 82.5381 6.848C82.5381 6.51733 82.6501 6.24 82.8741 6.016C83.0981 5.792 83.3755 5.68 83.7061 5.68C84.0261 5.68 84.2981 5.792 84.5221 6.016C84.7461 6.24 84.8581 6.51733 84.8581 6.848C84.8581 7.17867 84.7461 7.456 84.5221 7.68C84.2981 7.904 84.0261 8.016 83.7061 8.016ZM84.6021 9.184V18H82.7781V9.184H84.6021ZM86.3889 13.552C86.3889 12.6667 86.5702 11.8827 86.9329 11.2C87.3062 10.5173 87.8075 9.98933 88.4369 9.616C89.0769 9.232 89.7862 9.04 90.5649 9.04C91.1409 9.04 91.7062 9.168 92.2609 9.424C92.8262 9.66933 93.2742 10 93.6049 10.416V6.16H95.4449V18H93.6049V16.672C93.3062 17.0987 92.8902 17.4507 92.3569 17.728C91.8342 18.0053 91.2315 18.144 90.5489 18.144C89.7809 18.144 89.0769 17.952 88.4369 17.568C87.8075 17.1733 87.3062 16.6293 86.9329 15.936C86.5702 15.232 86.3889 14.4373 86.3889 13.552ZM93.6049 13.584C93.6049 12.976 93.4769 12.448 93.2209 12C92.9755 11.552 92.6502 11.2107 92.2449 10.976C91.8395 10.7413 91.4022 10.624 90.9329 10.624C90.4635 10.624 90.0262 10.7413 89.6209 10.976C89.2155 11.2 88.8849 11.536 88.6289 11.984C88.3835 12.4213 88.2609 12.944 88.2609 13.552C88.2609 14.16 88.3835 14.6933 88.6289 15.152C88.8849 15.6107 89.2155 15.9627 89.6209 16.208C90.0369 16.4427 90.4742 16.56 90.9329 16.56C91.4022 16.56 91.8395 16.4427 92.2449 16.208C92.6502 15.9733 92.9755 15.632 93.2209 15.184C93.4769 14.7253 93.6049 14.192 93.6049 13.584ZM105.921 13.376C105.921 13.7067 105.899 14.0053 105.857 14.272H99.1206C99.174 14.976 99.4353 15.5413 99.9046 15.968C100.374 16.3947 100.95 16.608 101.633 16.608C102.614 16.608 103.307 16.1973 103.713 15.376H105.681C105.414 16.1867 104.929 16.8533 104.225 17.376C103.531 17.888 102.667 18.144 101.633 18.144C100.79 18.144 100.033 17.9573 99.3606 17.584C98.6993 17.2 98.1766 16.6667 97.7926 15.984C97.4193 15.2907 97.2326 14.4907 97.2326 13.584C97.2326 12.6773 97.414 11.8827 97.7766 11.2C98.15 10.5067 98.6673 9.97333 99.3286 9.6C100.001 9.22667 100.769 9.04 101.633 9.04C102.465 9.04 103.206 9.22133 103.857 9.584C104.507 9.94667 105.014 10.4587 105.377 11.12C105.739 11.7707 105.921 12.5227 105.921 13.376ZM104.017 12.8C104.006 12.128 103.766 11.5893 103.297 11.184C102.827 10.7787 102.246 10.576 101.553 10.576C100.923 10.576 100.385 10.7787 99.9366 11.184C99.4886 11.5787 99.222 12.1173 99.1366 12.8H104.017Z" fill="black"/>
<path d="M56.6249 25.672V30.552C56.6249 30.8827 56.6995 31.1227 56.8489 31.272C57.0089 31.4107 57.2755 31.48 57.6489 31.48H58.7689V33H57.3289C56.5075 33 55.8782 32.808 55.4409 32.424C55.0035 32.04 54.7849 31.416 54.7849 30.552V25.672H53.7449V24.184H54.7849V21.992H56.6249V24.184H58.7689V25.672H56.6249ZM65.01 24.04C65.682 24.04 66.2793 24.184 66.802 24.472C67.3353 24.76 67.7513 25.1867 68.05 25.752C68.3593 26.3173 68.514 27 68.514 27.8V33H66.706V28.072C66.706 27.2827 66.5087 26.68 66.114 26.264C65.7193 25.8373 65.1807 25.624 64.498 25.624C63.8153 25.624 63.2713 25.8373 62.866 26.264C62.4713 26.68 62.274 27.2827 62.274 28.072V33H60.45V21.16H62.274V25.208C62.5833 24.8347 62.9727 24.5467 63.442 24.344C63.922 24.1413 64.4447 24.04 65.01 24.04ZM78.9206 28.376C78.9206 28.7067 78.8993 29.0053 78.8566 29.272H72.1206C72.174 29.976 72.4353 30.5413 72.9046 30.968C73.374 31.3947 73.95 31.608 74.6326 31.608C75.614 31.608 76.3073 31.1973 76.7126 30.376H78.6806C78.414 31.1867 77.9286 31.8533 77.2246 32.376C76.5313 32.888 75.6673 33.144 74.6326 33.144C73.79 33.144 73.0326 32.9573 72.3606 32.584C71.6993 32.2 71.1766 31.6667 70.7926 30.984C70.4193 30.2907 70.2326 29.4907 70.2326 28.584C70.2326 27.6773 70.414 26.8827 70.7766 26.2C71.15 25.5067 71.6673 24.9733 72.3286 24.6C73.0006 24.2267 73.7686 24.04 74.6326 24.04C75.4646 24.04 76.206 24.2213 76.8566 24.584C77.5073 24.9467 78.014 25.4587 78.3766 26.12C78.7393 26.7707 78.9206 27.5227 78.9206 28.376ZM77.0166 27.8C77.006 27.128 76.766 26.5893 76.2966 26.184C75.8273 25.7787 75.246 25.576 74.5526 25.576C73.9233 25.576 73.3846 25.7787 72.9366 26.184C72.4886 26.5787 72.222 27.1173 72.1366 27.8H77.0166ZM86.6959 25.496C87.0052 25.0693 87.4265 24.7227 87.9599 24.456C88.5039 24.1787 89.1065 24.04 89.7679 24.04C90.5465 24.04 91.2505 24.2267 91.8799 24.6C92.5092 24.9733 93.0052 25.5067 93.3679 26.2C93.7305 26.8827 93.9119 27.6667 93.9119 28.552C93.9119 29.4373 93.7305 30.232 93.3679 30.936C93.0052 31.6293 92.5039 32.1733 91.8639 32.568C91.2345 32.952 90.5359 33.144 89.7679 33.144C89.0852 33.144 88.4772 33.0107 87.9439 32.744C87.4212 32.4773 87.0052 32.136 86.6959 31.72V33H84.8719V21.16H86.6959V25.496ZM92.0559 28.552C92.0559 27.944 91.9279 27.4213 91.6719 26.984C91.4265 26.536 91.0959 26.2 90.6799 25.976C90.2745 25.7413 89.8372 25.624 89.3679 25.624C88.9092 25.624 88.4719 25.7413 88.0559 25.976C87.6505 26.2107 87.3199 26.552 87.0639 27C86.8185 27.448 86.6959 27.976 86.6959 28.584C86.6959 29.192 86.8185 29.7253 87.0639 30.184C87.3199 30.632 87.6505 30.9733 88.0559 31.208C88.4719 31.4427 88.9092 31.56 89.3679 31.56C89.8372 31.56 90.2745 31.4427 90.6799 31.208C91.0959 30.9627 91.4265 30.6107 91.6719 30.152C91.9279 29.6933 92.0559 29.16 92.0559 28.552ZM99.5396 33.144C98.7076 33.144 97.9556 32.9573 97.2836 32.584C96.6116 32.2 96.0836 31.6667 95.6996 30.984C95.3156 30.2907 95.1236 29.4907 95.1236 28.584C95.1236 27.688 95.321 26.8933 95.7156 26.2C96.1103 25.5067 96.649 24.9733 97.3316 24.6C98.0143 24.2267 98.777 24.04 99.6196 24.04C100.462 24.04 101.225 24.2267 101.908 24.6C102.59 24.9733 103.129 25.5067 103.524 26.2C103.918 26.8933 104.116 27.688 104.116 28.584C104.116 29.48 103.913 30.2747 103.508 30.968C103.102 31.6613 102.548 32.2 101.844 32.584C101.15 32.9573 100.382 33.144 99.5396 33.144ZM99.5396 31.56C100.009 31.56 100.446 31.448 100.852 31.224C101.268 31 101.604 30.664 101.86 30.216C102.116 29.768 102.244 29.224 102.244 28.584C102.244 27.944 102.121 27.4053 101.876 26.968C101.63 26.52 101.305 26.184 100.9 25.96C100.494 25.736 100.057 25.624 99.5876 25.624C99.1183 25.624 98.681 25.736 98.2756 25.96C97.881 26.184 97.5663 26.52 97.3316 26.968C97.097 27.4053 96.9796 27.944 96.9796 28.584C96.9796 29.5333 97.2196 30.2693 97.6996 30.792C98.1903 31.304 98.8036 31.56 99.5396 31.56ZM109.695 28.536L112.543 33H110.479L108.575 30.008L106.783 33H104.879L107.727 28.664L104.879 24.184H106.943L108.847 27.176L110.639 24.184H112.543L109.695 28.536Z" fill="black"/>
<path d="M88.6321 45.096C87.8801 45.096 87.2641 44.924 86.7841 44.58C86.3121 44.228 86.0481 43.752 85.9921 43.152H86.8561C86.8961 43.52 87.0681 43.82 87.3721 44.052C87.6841 44.276 88.1001 44.388 88.6201 44.388C89.0761 44.388 89.4321 44.28 89.6881 44.064C89.9521 43.848 90.0841 43.58 90.0841 43.26C90.0841 43.036 90.0121 42.852 89.8681 42.708C89.7241 42.564 89.5401 42.452 89.3161 42.372C89.1001 42.284 88.8041 42.192 88.4281 42.096C87.9401 41.968 87.5441 41.84 87.2401 41.712C86.9361 41.584 86.6761 41.396 86.4601 41.148C86.2521 40.892 86.1481 40.552 86.1481 40.128C86.1481 39.808 86.2441 39.512 86.4361 39.24C86.6281 38.968 86.9001 38.752 87.2521 38.592C87.6041 38.432 88.0041 38.352 88.4521 38.352C89.1561 38.352 89.7241 38.532 90.1561 38.892C90.5881 39.244 90.8201 39.732 90.8521 40.356H90.0121C89.9881 39.972 89.8361 39.664 89.5561 39.432C89.2841 39.192 88.9081 39.072 88.4281 39.072C88.0041 39.072 87.6601 39.172 87.3961 39.372C87.1321 39.572 87.0001 39.82 87.0001 40.116C87.0001 40.372 87.0761 40.584 87.2281 40.752C87.3881 40.912 87.5841 41.04 87.8161 41.136C88.0481 41.224 88.3601 41.324 88.7521 41.436C89.2241 41.564 89.6001 41.688 89.8801 41.808C90.1601 41.928 90.4001 42.104 90.6001 42.336C90.8001 42.568 90.9041 42.876 90.9121 43.26C90.9121 43.612 90.8161 43.928 90.6241 44.208C90.4321 44.48 90.1641 44.696 89.8201 44.856C89.4761 45.016 89.0801 45.096 88.6321 45.096ZM94.8333 38.328C95.3293 38.328 95.7733 38.432 96.1653 38.64C96.5653 38.848 96.8773 39.168 97.1013 39.6C97.3333 40.024 97.4493 40.544 97.4493 41.16V45H96.6213V41.256C96.6213 40.544 96.4413 40 96.0813 39.624C95.7293 39.248 95.2453 39.06 94.6293 39.06C93.9973 39.06 93.4933 39.26 93.1173 39.66C92.7413 40.06 92.5533 40.648 92.5533 41.424V45H91.7133V36.12H92.5533V39.564C92.7613 39.172 93.0653 38.868 93.4653 38.652C93.8733 38.436 94.3293 38.328 94.8333 38.328ZM101.395 45.096C100.779 45.096 100.223 44.96 99.727 44.688C99.239 44.408 98.851 44.016 98.563 43.512C98.283 43 98.143 42.404 98.143 41.724C98.143 41.044 98.287 40.452 98.575 39.948C98.863 39.436 99.255 39.044 99.751 38.772C100.247 38.492 100.803 38.352 101.419 38.352C102.035 38.352 102.591 38.492 103.087 38.772C103.591 39.044 103.983 39.436 104.263 39.948C104.551 40.452 104.695 41.044 104.695 41.724C104.695 42.396 104.551 42.988 104.263 43.5C103.975 44.012 103.579 44.408 103.075 44.688C102.571 44.96 102.011 45.096 101.395 45.096ZM101.395 44.364C101.827 44.364 102.227 44.268 102.595 44.076C102.963 43.876 103.259 43.58 103.483 43.188C103.715 42.788 103.831 42.3 103.831 41.724C103.831 41.148 103.719 40.664 103.495 40.272C103.271 39.872 102.975 39.576 102.607 39.384C102.239 39.184 101.839 39.084 101.407 39.084C100.975 39.084 100.575 39.184 100.207 39.384C99.839 39.576 99.543 39.872 99.319 40.272C99.103 40.664 98.995 41.148 98.995 41.724C98.995 42.3 99.103 42.788 99.319 43.188C99.543 43.58 99.835 43.876 100.195 44.076C100.563 44.268 100.963 44.364 101.395 44.364ZM106.274 39.888C106.482 39.448 106.81 39.084 107.258 38.796C107.714 38.5 108.254 38.352 108.878 38.352C109.47 38.352 110.002 38.492 110.474 38.772C110.954 39.044 111.326 39.436 111.59 39.948C111.862 40.452 111.998 41.04 111.998 41.712C111.998 42.384 111.862 42.976 111.59 43.488C111.326 44 110.954 44.396 110.474 44.676C110.002 44.956 109.47 45.096 108.878 45.096C108.262 45.096 107.726 44.952 107.27 44.664C106.814 44.368 106.482 44 106.274 43.56V48.096H105.446V38.448H106.274V39.888ZM111.146 41.712C111.146 41.168 111.038 40.7 110.822 40.308C110.614 39.908 110.326 39.604 109.958 39.396C109.59 39.188 109.174 39.084 108.71 39.084C108.262 39.084 107.85 39.192 107.474 39.408C107.106 39.624 106.814 39.932 106.598 40.332C106.382 40.732 106.274 41.196 106.274 41.724C106.274 42.252 106.382 42.716 106.598 43.116C106.814 43.516 107.106 43.824 107.474 44.04C107.85 44.256 108.262 44.364 108.71 44.364C109.174 44.364 109.59 44.26 109.958 44.052C110.326 43.836 110.614 43.528 110.822 43.128C111.038 42.72 111.146 42.248 111.146 41.712Z" fill="black"/>
<path d="M39.875 27.7167L18.125 15.1742" stroke="black" stroke-width="2" stroke-linecap="round" stroke-linejoin="round"/>
<path d="M50.75 43.6666V24.3333C50.7491 23.4857 50.5254 22.6533 50.1012 21.9194C49.677 21.1856 49.0674 20.5763 48.3333 20.1525L31.4167 10.4858C30.6819 10.0616 29.8484 9.83826 29 9.83826C28.1516 9.83826 27.3181 10.0616 26.5833 10.4858L9.66667 20.1525C8.93263 20.5763 8.32295 21.1856 7.89878 21.9194C7.47461 22.6533 7.25087 23.4857 7.25 24.3333V43.6666C7.25087 44.5142 7.47461 45.3467 7.89878 46.0805C8.32295 46.8143 8.93263 47.4237 9.66667 47.8475L26.5833 57.5141C27.3181 57.9383 28.1516 58.1617 29 58.1617C29.8484 58.1617 30.6819 57.9383 31.4167 57.5141L48.3333 47.8475C49.0674 47.4237 49.677 46.8143 50.1012 46.0805C50.5254 45.3467 50.7491 44.5142 50.75 43.6666Z" stroke="black" stroke-width="2" stroke-linecap="round" stroke-linejoin="round"/>
<path d="M7.90253 21.8199L29 34.0241L50.0975 21.8199" stroke="black" stroke-width="2" stroke-linecap="round" stroke-linejoin="round"/>
<path d="M29 58.36V34" stroke="black" stroke-width="2" stroke-linecap="round" stroke-linejoin="round"/>
</svg>
