<svg width="31" height="28" viewBox="0 0 31 28" fill="none" xmlns="http://www.w3.org/2000/svg">
<path d="M4.21631 6.95142H6.72992H26.8388" stroke="black" stroke-width="2" stroke-linecap="round" stroke-linejoin="round"/>
<path d="M24.325 6.9514V22.5997C24.325 23.1926 24.0602 23.7612 23.5888 24.1804C23.1174 24.5996 22.4781 24.8351 21.8114 24.8351H9.24335C8.5767 24.8351 7.93735 24.5996 7.46596 24.1804C6.99456 23.7612 6.72974 23.1926 6.72974 22.5997V6.9514M10.5002 6.9514V4.71594C10.5002 4.12305 10.765 3.55445 11.2364 3.13522C11.7078 2.71599 12.3471 2.48047 13.0138 2.48047H18.041C18.7076 2.48047 19.347 2.71599 19.8184 3.13522C20.2898 3.55445 20.5546 4.12305 20.5546 4.71594V6.9514" stroke="black" stroke-width="2" stroke-linecap="round" stroke-linejoin="round"/>
<path d="M13.0139 12.54V19.2464" stroke="black" stroke-width="2" stroke-linecap="round" stroke-linejoin="round"/>
<path d="M18.041 12.54V19.2464" stroke="black" stroke-width="2" stroke-linecap="round" stroke-linejoin="round"/>
</svg>
